<svg id="visual" viewBox="0 0 400 400" width="400" height="400" xmlns="http://www.w3.org/2000/svg" xmlns:xlink="http://www.w3.org/1999/xlink" version="1.1"><g transform="translate(178.78420447635062 189.6327187999027)"><path d="M80.6 -135.3C113.2 -120.8 154.5 -116.9 176.5 -96.1C198.5 -75.3 201.2 -37.7 194.9 -3.7C188.5 30.3 173.1 60.7 151.4 82C129.7 103.4 101.9 115.8 75.6 142.3C49.3 168.8 24.7 209.4 -0.2 209.7C-25 210 -50 169.9 -74.1 142.2C-98.2 114.4 -121.4 99 -129.8 77.3C-138.1 55.7 -131.5 27.8 -136.6 -2.9C-141.7 -33.7 -158.3 -67.3 -155 -97.6C-151.6 -128 -128.3 -154.9 -99.2 -171.4C-70 -187.9 -35 -194 -5.5 -184.4C24 -174.9 48 -149.8 80.6 -135.3" fill="#822323"></path></g></svg>