<svg width="168.321" height="28.965" viewBox="0 0 168.321 28.965" xmlns="http://www.w3.org/2000/svg"><g id="svgGroup" stroke-linecap="round" fill-rule="evenodd" font-size="9pt" stroke="#ffffff" stroke-width="0.25mm" fill="#ffffff" style="stroke:#ffffff;stroke-width:0.25mm;fill:#ffffff"><path d="M 115 25.449 A 63.648 63.648 0 0 0 114.794 22.654 A 50.081 50.081 0 0 0 114.561 20.654 A 89.468 89.468 0 0 0 114.331 19.085 Q 114.137 17.842 113.936 16.817 Q 113.613 15.176 113.369 14.16 A 29.381 29.381 0 0 1 113.286 13.806 Q 113.167 13.281 113.136 13.031 A 1.196 1.196 0 0 1 113.125 12.891 A 1.027 1.027 0 0 1 113.244 12.418 A 1.462 1.462 0 0 1 113.408 12.168 A 2.63 2.63 0 0 1 113.903 11.699 A 3.159 3.159 0 0 1 114.121 11.553 Q 114.551 11.289 115.049 11.133 Q 115.508 10.989 115.892 10.978 A 2.209 2.209 0 0 1 115.957 10.977 A 1.591 1.591 0 0 1 116.231 10.999 A 1.154 1.154 0 0 1 116.533 11.094 A 0.651 0.651 0 0 1 116.862 11.451 A 0.858 0.858 0 0 1 116.875 11.484 A 14.741 14.741 0 0 1 117.016 11.999 A 16.41 16.41 0 0 1 117.061 12.178 A 13.578 13.578 0 0 1 117.128 12.469 Q 117.157 12.6 117.186 12.744 A 25.84 25.84 0 0 1 117.246 13.047 A 4.294 4.294 0 0 0 117.289 13.274 Q 117.362 13.608 117.459 13.717 A 0.135 0.135 0 0 0 117.559 13.77 A 0.203 0.203 0 0 0 117.681 13.721 Q 117.818 13.617 117.976 13.283 A 4.146 4.146 0 0 0 118.047 13.125 Q 118.381 12.357 118.758 11.817 A 4.904 4.904 0 0 1 118.887 11.641 Q 119.336 11.055 119.854 10.713 Q 120.371 10.371 120.928 10.234 A 4.849 4.849 0 0 1 122.071 10.098 A 5.381 5.381 0 0 1 122.09 10.098 A 3.968 3.968 0 0 1 125.038 11.363 A 5.233 5.233 0 0 1 125.205 11.543 Q 126.176 12.64 126.826 14.479 A 15.991 15.991 0 0 1 127.207 15.723 Q 127.297 16.01 127.37 16.108 A 0.246 0.246 0 0 0 127.383 16.123 A 0.303 0.303 0 0 0 127.44 16.174 A 0.209 0.209 0 0 0 127.559 16.211 A 0.25 0.25 0 0 0 127.652 16.192 Q 127.707 16.17 127.764 16.123 A 0.368 0.368 0 0 0 127.826 16.056 Q 127.9 15.955 127.969 15.762 Q 128.438 14.492 129.063 13.604 A 8.731 8.731 0 0 1 129.659 12.843 Q 129.982 12.478 130.317 12.196 A 5.374 5.374 0 0 1 130.361 12.158 A 5.226 5.226 0 0 1 131.086 11.652 A 4.124 4.124 0 0 1 131.738 11.348 A 4.407 4.407 0 0 1 132.49 11.146 A 3.524 3.524 0 0 1 133.086 11.094 A 3.087 3.087 0 0 1 135.03 11.783 A 4.034 4.034 0 0 1 135.244 11.963 A 4.99 4.99 0 0 1 135.939 12.747 Q 136.251 13.176 136.536 13.721 A 11.608 11.608 0 0 1 136.963 14.639 Q 137.531 16.004 137.988 17.917 A 37.092 37.092 0 0 1 138.272 19.209 A 49.877 49.877 0 0 1 138.663 21.426 Q 138.967 23.394 139.199 25.762 Q 139.199 26.425 138.945 26.837 A 1.264 1.264 0 0 1 138.555 27.236 Q 138.047 27.567 137.249 27.637 A 5.159 5.159 0 0 1 136.797 27.656 Q 136.074 27.656 135.664 27.344 A 1.184 1.184 0 0 1 135.301 26.904 A 1.215 1.215 0 0 1 135.195 26.524 A 122.188 122.188 0 0 0 134.947 24.109 Q 134.8 22.815 134.639 21.69 Q 134.431 20.233 134.199 19.09 A 26.694 26.694 0 0 0 133.985 18.115 A 15.831 15.831 0 0 0 133.761 17.283 Q 133.503 16.425 133.213 15.899 A 2.629 2.629 0 0 0 133.011 15.583 Q 132.674 15.137 132.285 15.137 A 0.468 0.468 0 0 0 132.114 15.173 Q 131.968 15.231 131.789 15.382 A 2.638 2.638 0 0 0 131.651 15.508 A 1.993 1.993 0 0 0 131.432 15.765 Q 131.149 16.156 130.84 16.865 Q 130.43 17.807 129.984 19.406 A 39.781 39.781 0 0 0 129.942 19.561 A 28.326 28.326 0 0 0 129.61 20.911 Q 129.464 21.568 129.322 22.321 A 64.278 64.278 0 0 0 129.043 23.926 A 1.743 1.743 0 0 1 128.839 24.526 A 1.56 1.56 0 0 1 128.33 25.059 A 2.333 2.333 0 0 1 127.483 25.394 A 3.209 3.209 0 0 1 126.875 25.449 Q 125.879 25.449 125.498 25.137 Q 125.117 24.824 125.078 24.082 Q 125 22.793 124.815 21.514 A 29.211 29.211 0 0 0 124.455 19.512 A 25.932 25.932 0 0 0 124.356 19.072 A 25.879 25.879 0 0 0 123.996 17.705 A 21.046 21.046 0 0 0 123.75 16.924 A 15.677 15.677 0 0 0 123.43 16.055 Q 123.267 15.652 123.096 15.304 A 9.247 9.247 0 0 0 123.047 15.205 A 6.828 6.828 0 0 0 122.772 14.711 Q 122.532 14.322 122.285 14.063 Q 121.895 13.652 121.524 13.652 Q 121.058 13.652 120.619 14.275 A 3.193 3.193 0 0 0 120.576 14.336 A 4.422 4.422 0 0 0 120.272 14.873 Q 119.993 15.449 119.756 16.27 A 14.855 14.855 0 0 0 119.477 17.415 Q 119.358 17.997 119.262 18.659 A 28.101 28.101 0 0 0 119.18 19.277 A 27.947 27.947 0 0 0 119.019 21.138 A 37.857 37.857 0 0 0 118.965 23.203 Q 118.965 23.574 118.985 23.936 A 13.549 13.549 0 0 1 119.003 24.494 A 15.189 15.189 0 0 1 119.004 24.688 Q 119.004 25.117 118.904 25.432 A 1.473 1.473 0 0 1 118.818 25.645 A 1.436 1.436 0 0 1 118.291 26.231 A 2.057 2.057 0 0 1 117.745 26.469 A 2.524 2.524 0 0 1 117.5 26.524 A 5.241 5.241 0 0 1 116.924 26.59 A 6.528 6.528 0 0 1 116.524 26.602 A 5.747 5.747 0 0 1 116.237 26.595 Q 115.963 26.581 115.769 26.539 A 1.698 1.698 0 0 1 115.742 26.533 A 1.513 1.513 0 0 1 115.557 26.478 Q 115.466 26.444 115.394 26.401 A 0.696 0.696 0 0 1 115.293 26.328 Q 115.137 26.192 115.078 25.967 A 2.333 2.333 0 0 1 115.031 25.733 Q 115.01 25.6 115 25.449 Z M 18.522 4.853 A 2.29 2.29 0 0 0 18.34 5.801 A 4.37 4.37 0 0 0 18.34 5.85 Q 18.346 6.381 18.478 7.449 A 50.61 50.61 0 0 0 18.584 8.252 Q 18.737 9.345 18.92 10.735 A 550.037 550.037 0 0 1 19.151 12.51 A 160.866 160.866 0 0 1 19.468 15.166 A 219.103 219.103 0 0 1 19.776 18.115 A 93.495 93.495 0 0 1 19.915 19.682 A 106.939 106.939 0 0 1 20.195 24.609 A 3.139 3.139 0 0 0 20.238 25.016 Q 20.28 25.258 20.362 25.45 A 1.231 1.231 0 0 0 20.674 25.899 A 1.079 1.079 0 0 0 20.799 25.994 Q 21.111 26.199 21.641 26.262 A 4.338 4.338 0 0 0 22.149 26.289 Q 22.656 26.289 23.027 26.221 A 1.99 1.99 0 0 0 23.311 26.148 A 1.511 1.511 0 0 0 23.662 25.977 Q 23.926 25.801 24.121 25.508 A 2.267 2.267 0 0 0 24.192 25.394 Q 24.269 25.262 24.339 25.105 A 4.301 4.301 0 0 0 24.473 24.766 Q 26.094 19.844 27.588 17.402 Q 28.51 15.896 29.436 15.319 A 2.159 2.159 0 0 1 30.586 14.961 A 1.214 1.214 0 0 1 31.038 15.049 Q 31.265 15.139 31.481 15.322 A 2.588 2.588 0 0 1 31.826 15.684 Q 32.402 16.406 32.832 17.637 A 11.42 11.42 0 0 1 32.906 17.856 Q 33.102 18.457 33.257 19.148 A 19.301 19.301 0 0 1 33.506 20.498 Q 33.75 22.129 33.75 23.965 A 2.452 2.452 0 0 0 33.759 24.174 Q 33.778 24.395 33.838 24.575 A 1.09 1.09 0 0 0 34.151 25.059 A 0.991 0.991 0 0 0 34.247 25.133 Q 34.532 25.327 35.018 25.385 A 3.81 3.81 0 0 0 35.469 25.41 A 7.278 7.278 0 0 0 35.78 25.404 Q 36.243 25.384 36.582 25.303 Q 36.766 25.259 36.916 25.187 A 1.196 1.196 0 0 0 37.285 24.922 Q 37.436 24.76 37.535 24.532 A 1.998 1.998 0 0 0 37.647 24.19 A 3.37 3.37 0 0 0 37.703 23.882 Q 37.754 23.508 37.754 23.008 A 27.091 27.091 0 0 0 37.655 20.645 A 20.411 20.411 0 0 0 37.305 18.233 A 18.878 18.878 0 0 0 37.244 17.955 Q 36.802 15.995 36.035 14.59 A 7.967 7.967 0 0 0 35.311 13.481 A 5.965 5.965 0 0 0 34.043 12.266 Q 32.871 11.445 31.426 11.445 A 5.688 5.688 0 0 0 29.287 11.865 Q 28.242 12.285 27.305 13.096 A 9.653 9.653 0 0 0 26.562 13.812 A 11.861 11.861 0 0 0 25.547 15.068 Q 24.727 16.231 24.063 17.695 A 1.513 1.513 0 0 1 23.989 17.828 Q 23.91 17.952 23.832 18.005 A 0.212 0.212 0 0 1 23.711 18.047 Q 23.594 18.047 23.506 17.93 Q 23.441 17.844 23.424 17.673 A 1.346 1.346 0 0 1 23.418 17.539 Q 23.32 15.891 23.234 14.529 A 460.003 460.003 0 0 0 23.135 12.998 Q 23.063 11.927 22.992 10.998 A 132.63 132.63 0 0 0 22.881 9.639 A 107.082 107.082 0 0 0 22.752 8.255 A 77.795 77.795 0 0 0 22.617 7.012 Q 22.481 5.84 22.305 4.649 A 1.275 1.275 0 0 0 22.3 4.614 A 0.981 0.981 0 0 0 21.895 3.945 A 1.307 1.307 0 0 0 21.558 3.77 A 1.46 1.46 0 0 0 21.074 3.692 A 5.951 5.951 0 0 0 20.48 3.72 Q 18.964 3.872 18.522 4.853 Z M 96.061 7.873 A 10.943 10.943 0 0 0 93.926 7.656 A 7.726 7.726 0 0 0 93.413 7.673 A 6.577 6.577 0 0 0 91.709 8.008 A 6.392 6.392 0 0 0 91.334 8.15 A 5.447 5.447 0 0 0 89.922 8.994 A 4.67 4.67 0 0 0 88.721 10.508 A 4.058 4.058 0 0 0 88.503 11.031 A 4.4 4.4 0 0 0 88.281 12.442 Q 88.281 13.711 89.082 14.795 A 9.606 9.606 0 0 0 89.8 15.655 A 11.761 11.761 0 0 0 91.094 16.836 A 27.34 27.34 0 0 0 91.4 17.074 A 30.174 30.174 0 0 0 93.701 18.672 A 57.667 57.667 0 0 1 94.472 19.166 A 49.558 49.558 0 0 1 96.309 20.42 A 16.411 16.411 0 0 1 96.346 20.447 Q 97.532 21.303 98.32 22.197 A 3.717 3.717 0 0 1 98.734 22.761 A 2.635 2.635 0 0 1 99.121 24.121 Q 99.121 25.143 98.139 25.355 A 2.766 2.766 0 0 1 97.559 25.41 A 2.922 2.922 0 0 1 96.445 25.195 A 3.513 3.513 0 0 1 96.429 25.189 A 3.134 3.134 0 0 1 95.518 24.619 A 2.794 2.794 0 0 1 94.883 23.789 A 2.157 2.157 0 0 1 94.649 22.813 Q 94.649 22.52 94.717 22.227 A 6.891 6.891 0 0 1 94.743 22.118 A 6.117 6.117 0 0 1 94.873 21.67 A 48.578 48.578 0 0 0 94.917 21.539 A 43.075 43.075 0 0 0 95.039 21.162 A 1.773 1.773 0 0 0 95.067 21.067 A 1.523 1.523 0 0 0 95.117 20.684 A 0.755 0.755 0 0 0 95.072 20.422 Q 95.011 20.257 94.871 20.114 A 1.388 1.388 0 0 0 94.629 19.922 A 1.671 1.671 0 0 0 94.339 19.775 Q 93.918 19.609 93.32 19.609 Q 92.781 19.609 92.359 19.738 A 1.931 1.931 0 0 0 91.377 20.391 Q 90.932 20.955 90.809 22.009 A 7.612 7.612 0 0 0 90.762 22.891 Q 90.762 24.219 91.279 25.332 Q 91.797 26.445 92.715 27.246 A 6.237 6.237 0 0 0 93.42 27.778 A 7.217 7.217 0 0 0 94.902 28.506 A 7.384 7.384 0 0 0 95.888 28.786 A 8.633 8.633 0 0 0 97.676 28.965 A 7.526 7.526 0 0 0 98.366 28.934 A 6.186 6.186 0 0 0 99.863 28.613 Q 100.86 28.262 101.582 27.617 A 4.384 4.384 0 0 0 102.695 26.074 A 4.529 4.529 0 0 0 102.948 25.312 A 5.315 5.315 0 0 0 103.086 24.082 A 6.718 6.718 0 0 0 103.08 23.807 A 5.787 5.787 0 0 0 102.617 21.729 A 8.086 8.086 0 0 0 101.377 19.727 A 12.36 12.36 0 0 0 99.629 18.027 A 24.679 24.679 0 0 0 97.627 16.582 A 74.533 74.533 0 0 0 97.117 16.255 A 67.121 67.121 0 0 0 95.625 15.332 A 40.84 40.84 0 0 1 94.7 14.761 A 30.369 30.369 0 0 1 93.877 14.219 Q 93.106 13.692 92.637 13.193 A 2.485 2.485 0 0 1 92.496 13.03 Q 92.168 12.615 92.168 12.207 A 1.377 1.377 0 0 1 92.174 12.074 A 0.977 0.977 0 0 1 92.568 11.358 A 1.337 1.337 0 0 1 92.6 11.335 Q 92.835 11.167 93.144 11.1 A 2.115 2.115 0 0 1 93.594 11.055 A 4.655 4.655 0 0 1 93.601 11.055 A 4.079 4.079 0 0 1 95.371 11.445 A 12.087 12.087 0 0 1 95.624 11.57 A 10.744 10.744 0 0 1 96.885 12.315 A 215.112 215.112 0 0 0 97.549 12.771 A 161.622 161.622 0 0 0 98.154 13.184 Q 98.731 13.574 99.199 13.574 Q 99.551 13.574 100.01 13.35 A 3.866 3.866 0 0 0 100.86 12.783 A 4.83 4.83 0 0 0 101.053 12.604 A 4.117 4.117 0 0 0 101.524 12.061 A 2.035 2.035 0 0 0 101.641 11.878 Q 101.797 11.603 101.797 11.367 Q 101.797 10.913 101.405 10.438 A 3.345 3.345 0 0 0 101.055 10.078 A 5.551 5.551 0 0 0 100.921 9.962 Q 100.552 9.653 100.09 9.371 A 9.509 9.509 0 0 0 99.16 8.877 A 12.367 12.367 0 0 0 98.34 8.531 A 14.702 14.702 0 0 0 96.621 7.998 A 12.605 12.605 0 0 0 96.061 7.873 Z M 64.44 1.524 A 2.858 2.858 0 0 0 64.395 2.051 A 0.342 0.342 0 0 0 64.396 2.078 Q 64.407 2.215 64.512 2.754 Q 64.6 3.208 64.737 3.915 A 3668.381 3668.381 0 0 0 64.834 4.414 A 798.965 798.965 0 0 1 64.97 5.114 Q 65.128 5.93 65.322 6.943 A 164.671 164.671 0 0 1 65.613 8.499 A 220.315 220.315 0 0 1 65.918 10.215 A 0.823 0.823 0 0 1 65.94 10.294 A 0.66 0.66 0 0 1 65.957 10.44 L 65.957 10.645 Q 65.957 10.869 65.901 11.038 A 0.705 0.705 0 0 1 65.733 11.318 Q 65.508 11.543 65.117 11.641 A 47.429 47.429 0 0 0 63.486 11.965 A 34.558 34.558 0 0 0 62.031 12.315 A 35.899 35.899 0 0 0 62.002 12.322 Q 61.081 12.567 60.41 12.798 A 11.435 11.435 0 0 0 59.844 13.008 A 1.823 1.823 0 0 0 59.582 13.149 A 1.351 1.351 0 0 0 59.287 13.408 A 1.82 1.82 0 0 0 58.975 13.936 A 2.848 2.848 0 0 0 58.962 13.971 A 2.579 2.579 0 0 0 58.828 14.502 A 5.275 5.275 0 0 0 58.818 14.58 Q 58.804 14.696 58.797 14.799 A 2.895 2.895 0 0 0 58.789 15 A 3.189 3.189 0 0 0 58.793 15.159 Q 58.804 15.388 58.85 15.586 A 1.682 1.682 0 0 0 59.004 16.006 A 0.959 0.959 0 0 0 59.053 16.088 Q 59.178 16.274 59.367 16.351 A 0.787 0.787 0 0 0 59.668 16.406 A 3.305 3.305 0 0 0 59.713 16.406 Q 59.869 16.404 60.043 16.387 A 5.442 5.442 0 0 0 60.41 16.338 A 4.278 4.278 0 0 0 60.533 16.316 Q 60.718 16.279 60.924 16.223 A 8.043 8.043 0 0 0 61.348 16.094 A 25.993 25.993 0 0 1 62.07 15.865 A 30.9 30.9 0 0 1 63.36 15.508 A 79.584 79.584 0 0 1 64.468 15.234 A 94.316 94.316 0 0 1 65.645 14.961 A 0.391 0.391 0 0 0 65.671 14.96 Q 65.72 14.957 65.781 14.942 A 0.827 0.827 0 0 1 65.815 14.934 Q 65.873 14.922 65.918 14.922 Q 66.456 14.922 66.686 15.414 A 1.6 1.6 0 0 1 66.797 15.762 Q 67.129 18.086 67.383 20.42 Q 67.637 22.754 67.754 25.059 A 2.711 2.711 0 0 0 67.783 25.341 Q 67.866 25.854 68.145 26.133 A 1.037 1.037 0 0 0 68.464 26.347 Q 68.629 26.42 68.837 26.454 A 2.485 2.485 0 0 0 69.238 26.484 A 8.434 8.434 0 0 0 69.618 26.476 Q 69.883 26.464 70.112 26.435 A 3.857 3.857 0 0 0 70.537 26.358 A 2.174 2.174 0 0 0 70.927 26.224 A 1.563 1.563 0 0 0 71.367 25.928 A 1.567 1.567 0 0 0 71.636 25.581 A 1.934 1.934 0 0 0 71.817 25.147 A 2.91 2.91 0 0 0 71.873 24.91 Q 71.914 24.702 71.934 24.461 A 6.019 6.019 0 0 0 71.953 23.965 A 2.167 2.167 0 0 0 71.952 23.885 Q 71.941 23.605 71.865 22.94 A 89.759 89.759 0 0 0 71.856 22.862 Q 71.793 22.308 71.701 21.563 A 259.72 259.72 0 0 0 71.631 21.006 Q 71.549 20.352 71.448 19.597 A 278.026 278.026 0 0 0 71.279 18.359 Q 71.074 16.875 70.84 15.176 Q 70.84 15.137 70.832 15.086 A 1.051 1.051 0 0 0 70.82 15.029 A 1.065 1.065 0 0 1 70.81 14.976 Q 70.801 14.923 70.801 14.883 A 1.187 1.187 0 0 1 70.807 14.757 Q 70.859 14.271 71.327 14.09 A 1.544 1.544 0 0 1 71.68 14.004 A 86.792 86.792 0 0 1 75.127 13.721 Q 76.856 13.613 78.555 13.613 Q 78.906 13.613 79.18 13.457 A 1.511 1.511 0 0 0 79.639 13.057 A 1.834 1.834 0 0 0 79.716 12.947 A 2.02 2.02 0 0 0 79.932 12.5 Q 80.039 12.188 80.039 11.895 A 4.362 4.362 0 0 0 79.99 11.24 A 1.963 1.963 0 0 0 79.975 11.151 A 1.698 1.698 0 0 0 79.795 10.654 A 1.206 1.206 0 0 0 79.395 10.225 Q 79.141 10.059 78.711 10.059 Q 78.403 10.059 78.043 10.074 A 23.291 23.291 0 0 0 77.451 10.108 A 78.348 78.348 0 0 0 76.719 10.161 A 91.756 91.756 0 0 0 75.947 10.225 A 129.798 129.798 0 0 0 74.365 10.371 A 1357.28 1357.28 0 0 0 73.601 10.447 A 1090.989 1090.989 0 0 0 72.891 10.518 Q 72.464 10.56 72.109 10.596 A 459.776 459.776 0 0 1 71.709 10.635 Q 71.336 10.672 71.121 10.681 A 2.976 2.976 0 0 1 70.996 10.684 A 1.213 1.213 0 0 1 70.772 10.664 Q 70.342 10.583 70.171 10.169 A 1.461 1.461 0 0 1 70.078 9.805 A 297.339 297.339 0 0 1 69.483 5.918 A 240.974 240.974 0 0 1 69.413 5.437 A 218.786 218.786 0 0 1 68.965 2.168 A 7.59 7.59 0 0 0 68.912 1.884 Q 68.83 1.485 68.721 1.201 A 1.999 1.999 0 0 0 68.584 0.914 A 1.485 1.485 0 0 0 68.33 0.586 A 1.296 1.296 0 0 0 67.744 0.264 A 2.308 2.308 0 0 0 67.576 0.227 Q 67.429 0.201 67.26 0.188 A 4.567 4.567 0 0 0 66.914 0.176 Q 66.009 0.176 65.447 0.365 A 1.766 1.766 0 0 0 64.981 0.596 A 1.232 1.232 0 0 0 64.609 1.024 Q 64.493 1.241 64.44 1.524 Z M 140.606 17.93 L 140.645 17.539 A 3.406 3.406 0 0 1 140.714 17.175 Q 140.811 16.791 140.986 16.57 A 0.929 0.929 0 0 1 141.026 16.524 Q 141.258 16.267 141.707 16.221 A 2.033 2.033 0 0 1 141.914 16.211 L 142.207 16.211 Q 142.924 16.211 143.268 15.629 A 1.644 1.644 0 0 0 143.36 15.449 A 10.446 10.446 0 0 1 144.902 12.988 A 10.239 10.239 0 0 1 147.012 11.084 Q 148.184 10.293 149.522 9.854 A 8.679 8.679 0 0 1 152.246 9.414 A 8.816 8.816 0 0 1 154.228 9.631 A 7.854 7.854 0 0 1 154.951 9.834 A 7.576 7.576 0 0 1 156.433 10.504 A 6.519 6.519 0 0 1 157.149 10.996 Q 158.086 11.738 158.623 12.734 A 4.457 4.457 0 0 1 159.16 14.883 A 3.564 3.564 0 0 1 159.026 15.875 A 3.174 3.174 0 0 1 158.848 16.348 Q 158.535 17.012 157.949 17.51 A 4.402 4.402 0 0 1 157.081 18.081 A 5.522 5.522 0 0 1 156.533 18.32 Q 155.703 18.633 154.649 18.731 L 147.871 19.414 A 1.277 1.277 0 0 0 147.599 19.442 Q 147.409 19.483 147.266 19.587 A 0.8 0.8 0 0 0 147.236 19.609 Q 146.992 19.805 146.992 20.137 A 1.405 1.405 0 0 0 147.172 20.817 A 1.952 1.952 0 0 0 147.373 21.113 Q 147.754 21.582 148.389 21.943 A 5.421 5.421 0 0 0 149.211 22.321 A 6.928 6.928 0 0 0 149.854 22.52 A 6.793 6.793 0 0 0 151.563 22.734 A 9.257 9.257 0 0 0 153.042 22.612 A 10.408 10.408 0 0 0 153.291 22.568 A 11.347 11.347 0 0 0 155.049 22.09 A 12.604 12.604 0 0 0 156.738 21.338 Q 157.559 20.899 158.281 20.332 A 2.522 2.522 0 0 1 158.651 20.064 Q 158.874 19.933 159.095 19.88 A 1.275 1.275 0 0 1 159.395 19.844 A 1.059 1.059 0 0 1 159.961 20 A 1.922 1.922 0 0 1 160.151 20.135 Q 160.327 20.276 160.527 20.488 A 9.653 9.653 0 0 1 160.694 20.753 Q 160.843 20.997 160.928 21.179 A 2.487 2.487 0 0 1 160.947 21.221 A 1.482 1.482 0 0 1 161.05 21.536 A 1.227 1.227 0 0 1 161.074 21.777 A 1.236 1.236 0 0 1 160.889 22.418 Q 160.745 22.66 160.488 22.891 A 13.511 13.511 0 0 1 158.457 24.287 A 15.105 15.105 0 0 1 156.172 25.332 A 14.881 14.881 0 0 1 153.711 25.986 A 14.439 14.439 0 0 1 151.192 26.211 Q 149.61 26.211 148.223 25.811 A 8.916 8.916 0 0 1 146.459 25.099 A 7.813 7.813 0 0 1 145.752 24.668 A 7.224 7.224 0 0 1 143.926 22.881 A 6.714 6.714 0 0 1 142.871 20.527 Q 142.704 20.006 142.563 19.831 A 0.469 0.469 0 0 0 142.549 19.815 A 0.439 0.439 0 0 0 142.371 19.695 Q 142.298 19.668 142.208 19.657 A 1.104 1.104 0 0 0 142.07 19.649 A 2.383 2.383 0 0 1 141.637 19.612 Q 141.396 19.567 141.207 19.469 A 1.188 1.188 0 0 1 140.957 19.297 Q 140.575 18.953 140.567 18.311 A 2.221 2.221 0 0 1 140.567 18.281 A 2.995 2.995 0 0 1 140.568 18.171 Q 140.574 18.019 140.597 17.952 A 0.172 0.172 0 0 1 140.606 17.93 Z M 12.07 26.133 L 11.192 26.406 A 2.299 2.299 0 0 1 10.76 26.507 A 1.959 1.959 0 0 1 10.508 26.524 A 1.299 1.299 0 0 1 10.131 26.471 A 1.018 1.018 0 0 1 9.688 26.201 A 1.288 1.288 0 0 1 9.449 25.847 Q 9.371 25.682 9.322 25.478 A 2.745 2.745 0 0 1 9.277 25.254 A 174.052 174.052 0 0 1 8.32 18.565 A 76.565 76.565 0 0 1 7.793 11.856 A 25.853 25.853 0 0 1 7.759 11.284 A 32.966 32.966 0 0 1 7.735 10.664 A 43.635 43.635 0 0 1 7.715 9.421 A 47.53 47.53 0 0 1 7.715 9.336 A 1.671 1.671 0 0 0 7.681 8.981 Q 7.569 8.468 7.09 8.392 A 1.129 1.129 0 0 0 6.914 8.379 A 1.267 1.267 0 0 0 6.825 8.383 Q 6.695 8.392 6.467 8.425 A 13.73 13.73 0 0 0 6.318 8.447 Q 5.879 8.516 5.293 8.613 A 39.604 39.604 0 0 0 4.693 8.718 A 46.051 46.051 0 0 0 4.063 8.838 A 57.471 57.471 0 0 1 3.438 8.958 A 47.048 47.048 0 0 1 2.852 9.063 A 142.716 142.716 0 0 1 2.447 9.132 Q 2.128 9.186 1.865 9.229 A 13.034 13.034 0 0 1 1.695 9.255 Q 1.416 9.297 1.309 9.297 A 1.798 1.798 0 0 1 0.783 9.227 Q 0 8.987 0 7.93 Q 0 7.559 0.068 7.197 Q 0.137 6.836 0.313 6.533 A 1.69 1.69 0 0 1 0.781 6.016 A 1.486 1.486 0 0 1 1.137 5.826 Q 1.313 5.759 1.524 5.723 A 254.945 254.945 0 0 0 6.074 4.981 A 341.718 341.718 0 0 0 10.645 4.16 A 52.225 52.225 0 0 0 11.128 4.065 A 38.18 38.18 0 0 0 11.563 3.975 Q 11.946 3.893 12.414 3.751 A 15.073 15.073 0 0 0 12.481 3.731 A 20.1 20.1 0 0 1 13.052 3.577 A 25.177 25.177 0 0 1 13.672 3.428 A 28.654 28.654 0 0 1 14.971 3.164 A 25.579 25.579 0 0 1 16.086 2.989 A 23.038 23.038 0 0 1 16.24 2.969 A 10.418 10.418 0 0 1 16.829 2.91 A 7.718 7.718 0 0 1 17.363 2.891 A 1.556 1.556 0 0 1 17.741 2.934 A 1.03 1.03 0 0 1 18.311 3.291 Q 18.575 3.619 18.623 4.165 A 2.874 2.874 0 0 1 18.633 4.414 Q 18.633 4.785 18.574 5.127 A 1.963 1.963 0 0 1 18.455 5.546 A 1.713 1.713 0 0 1 18.36 5.742 A 1.289 1.289 0 0 1 17.93 6.192 A 1.235 1.235 0 0 1 17.639 6.326 Q 17.501 6.371 17.338 6.394 A 2.319 2.319 0 0 1 17.227 6.406 A 61.21 61.21 0 0 0 16.074 6.58 A 75.164 75.164 0 0 0 14.844 6.787 A 27.218 27.218 0 0 0 13.938 6.963 Q 13.446 7.067 13.016 7.18 A 14.927 14.927 0 0 0 12.637 7.285 A 1.389 1.389 0 0 0 12.362 7.399 Q 12.17 7.505 12.051 7.666 A 1.285 1.285 0 0 0 11.867 8.024 A 1.735 1.735 0 0 0 11.797 8.32 Q 11.738 8.692 11.729 9.072 A 29.483 29.483 0 0 0 11.719 9.627 A 26.11 26.11 0 0 0 11.719 9.805 Q 11.719 10.625 11.787 11.445 Q 11.856 12.266 11.914 13.086 A 82.184 82.184 0 0 0 12.451 18.652 Q 12.813 21.406 13.242 24.219 A 0.537 0.537 0 0 1 13.279 24.365 A 0.49 0.49 0 0 1 13.281 24.414 L 13.281 24.609 Q 13.281 25.654 12.137 26.107 A 3.216 3.216 0 0 1 12.07 26.133 Z M 55.703 14.121 L 55.781 15.684 Q 55.848 18.071 56.379 19.359 A 3.934 3.934 0 0 0 56.572 19.766 Q 57.057 20.642 57.745 20.923 A 1.816 1.816 0 0 0 58.438 21.055 A 3.702 3.702 0 0 0 58.803 21.038 Q 58.999 21.018 59.17 20.977 A 5.26 5.26 0 0 0 59.631 20.843 A 4.596 4.596 0 0 0 59.776 20.791 A 9.58 9.58 0 0 1 60.118 20.668 A 7.861 7.861 0 0 1 60.313 20.606 Q 60.567 20.527 60.82 20.527 A 0.97 0.97 0 0 1 61.462 20.771 A 1.399 1.399 0 0 1 61.611 20.918 A 1.372 1.372 0 0 1 61.953 21.839 A 1.735 1.735 0 0 1 61.953 21.856 Q 61.953 22.402 61.533 22.949 A 3.896 3.896 0 0 1 60.942 23.561 A 5.033 5.033 0 0 1 60.43 23.936 Q 59.746 24.375 58.887 24.649 A 5.702 5.702 0 0 1 57.149 24.922 A 3.403 3.403 0 0 1 54.842 24.025 A 4.74 4.74 0 0 1 54.473 23.662 A 5.479 5.479 0 0 1 53.619 22.389 Q 53.114 21.372 52.832 19.961 Q 52.755 19.704 52.644 19.616 A 0.197 0.197 0 0 0 52.52 19.57 A 0.451 0.451 0 0 0 52.225 19.681 A 0.724 0.724 0 0 0 52.11 19.805 A 17.187 17.187 0 0 1 50.369 21.707 Q 49.291 22.713 48.142 23.38 A 10.634 10.634 0 0 1 47.988 23.467 A 10.218 10.218 0 0 1 45.951 24.343 A 7.892 7.892 0 0 1 43.672 24.688 A 5.836 5.836 0 0 1 42.669 24.605 A 4.611 4.611 0 0 1 41.875 24.395 A 4.042 4.042 0 0 1 40.97 23.933 A 3.525 3.525 0 0 1 40.518 23.565 A 3.595 3.595 0 0 1 39.717 22.399 A 4.179 4.179 0 0 1 39.658 22.256 A 4.359 4.359 0 0 1 39.391 21.163 A 5.495 5.495 0 0 1 39.356 20.527 A 6.85 6.85 0 0 1 39.566 18.879 A 8.965 8.965 0 0 1 39.951 17.695 A 13.955 13.955 0 0 1 41.081 15.491 A 16.322 16.322 0 0 1 41.563 14.766 A 19.583 19.583 0 0 1 43.75 12.176 A 21.538 21.538 0 0 1 43.916 12.012 A 20.17 20.17 0 0 1 46.729 9.707 A 15.437 15.437 0 0 1 48.968 8.444 A 13.644 13.644 0 0 1 49.727 8.125 A 9.186 9.186 0 0 1 51.261 7.677 A 7.166 7.166 0 0 1 52.637 7.539 Q 53.711 7.539 54.707 7.871 A 6.178 6.178 0 0 1 55.992 8.464 A 5.471 5.471 0 0 1 56.465 8.789 A 4.583 4.583 0 0 1 57.686 10.195 A 3.642 3.642 0 0 1 58.144 11.948 A 4.286 4.286 0 0 1 58.145 12.012 A 1.785 1.785 0 0 1 57.959 12.803 A 2.171 2.171 0 0 1 57.461 13.467 Q 57.149 13.75 56.748 13.916 A 2.147 2.147 0 0 1 55.918 14.082 A 0.265 0.265 0 0 0 55.886 14.084 Q 55.869 14.086 55.854 14.091 A 0.157 0.157 0 0 0 55.85 14.092 Q 55.82 14.102 55.781 14.102 Q 55.742 14.121 55.703 14.121 Z M 167.09 18.809 L 165.449 18.574 Q 164.942 18.516 164.736 18.272 Q 164.573 18.078 164.515 17.754 A 1.95 1.95 0 0 1 164.492 17.578 A 62.801 62.801 0 0 0 164.026 12.269 A 73.066 73.066 0 0 0 163.711 10.098 A 77.107 77.107 0 0 0 162.012 2.207 Q 161.934 1.934 161.885 1.719 A 1.933 1.933 0 0 1 161.836 1.289 A 1.445 1.445 0 0 1 161.911 0.815 A 1.252 1.252 0 0 1 162.178 0.371 A 1.079 1.079 0 0 1 162.662 0.074 Q 162.899 0 163.203 0 A 9.638 9.638 0 0 1 164.282 0.055 Q 165.38 0.18 165.948 0.585 A 1.365 1.365 0 0 1 166.524 1.445 Q 166.875 3.281 167.168 5.137 A 96.832 96.832 0 0 1 167.686 8.897 Q 167.91 10.801 168.037 12.764 A 62.19 62.19 0 0 1 168.164 16.777 A 7.116 7.116 0 0 1 168.136 17.416 A 6.395 6.395 0 0 1 168.125 17.529 A 2.648 2.648 0 0 1 168.062 17.889 A 2.047 2.047 0 0 1 167.969 18.174 Q 167.852 18.457 167.647 18.633 Q 167.458 18.794 167.147 18.808 A 1.336 1.336 0 0 1 167.09 18.809 Z M 52.196 13.935 A 7.78 7.78 0 0 0 51.992 14.297 Q 50.793 16.448 49.595 17.918 A 13.102 13.102 0 0 1 48.203 19.395 Q 47.078 20.404 46.057 20.813 A 3.617 3.617 0 0 1 44.707 21.094 A 1.756 1.756 0 0 1 44.355 21.06 A 1.196 1.196 0 0 1 43.721 20.723 A 1.146 1.146 0 0 1 43.606 20.584 Q 43.36 20.236 43.36 19.688 A 2.818 2.818 0 0 1 43.381 19.342 Q 43.457 18.734 43.789 18.008 Q 44.219 17.07 44.922 16.113 A 14.817 14.817 0 0 1 45.194 15.755 A 16.614 16.614 0 0 1 46.533 14.248 A 19.435 19.435 0 0 1 46.875 13.914 A 17.187 17.187 0 0 1 48.389 12.627 A 12.2 12.2 0 0 1 49.154 12.095 A 9.622 9.622 0 0 1 50.254 11.484 A 5.974 5.974 0 0 1 50.571 11.347 Q 50.914 11.21 51.231 11.137 A 3.055 3.055 0 0 1 51.914 11.055 A 2.026 2.026 0 0 1 52.343 11.098 A 1.387 1.387 0 0 1 53.008 11.436 A 5.534 5.534 0 0 1 53.285 11.713 A 6.583 6.583 0 0 1 53.789 12.324 Q 53.906 12.5 53.906 12.656 Q 53.906 12.871 53.477 12.93 Q 52.93 13.027 52.637 13.33 Q 52.431 13.543 52.196 13.935 Z M 84.458 4.583 A 0.791 0.791 0 0 0 84.414 4.453 Q 84.258 4.082 83.711 3.926 A 3.877 3.877 0 0 0 83.379 3.847 A 4.433 4.433 0 0 0 82.539 3.77 A 7.117 7.117 0 0 0 82.187 3.778 Q 81.46 3.814 80.938 4.004 Q 80.489 4.167 80.353 4.547 A 1.104 1.104 0 0 0 80.293 4.922 Q 80.293 5.105 80.312 5.326 A 7.335 7.335 0 0 0 80.342 5.606 Q 80.372 5.85 80.403 6.155 A 36.804 36.804 0 0 1 80.44 6.543 A 42.587 42.587 0 0 1 80.47 6.903 Q 80.485 7.092 80.501 7.299 A 75.458 75.458 0 0 1 80.537 7.822 Q 80.568 8.28 80.579 8.833 A 33.809 33.809 0 0 1 80.586 9.531 A 65.223 65.223 0 0 1 80.581 10.382 Q 80.563 11.725 80.488 12.764 A 79.704 79.704 0 0 0 80.474 12.974 Q 80.413 13.845 80.397 14.377 A 11.529 11.529 0 0 0 80.391 14.727 Q 80.391 15 80.527 15.186 Q 80.664 15.371 80.889 15.479 Q 81.113 15.586 81.367 15.635 A 2.901 2.901 0 0 0 81.493 15.656 A 2.491 2.491 0 0 0 81.856 15.684 A 1.552 1.552 0 0 0 82.455 15.564 A 1.91 1.91 0 0 0 82.92 15.283 A 1.523 1.523 0 0 0 82.997 15.217 Q 83.309 14.93 83.565 14.39 A 5.601 5.601 0 0 0 83.779 13.867 A 6.21 6.21 0 0 0 83.812 13.773 Q 84.039 13.1 84.202 12.129 A 21.052 21.052 0 0 0 84.346 11.113 A 25.016 25.016 0 0 0 84.458 9.874 Q 84.504 9.205 84.527 8.437 A 57.226 57.226 0 0 0 84.551 6.719 A 78.067 78.067 0 0 0 84.551 6.533 Q 84.549 5.976 84.54 5.552 A 26.702 26.702 0 0 0 84.531 5.244 A 7.127 7.127 0 0 0 84.53 5.205 Q 84.514 4.802 84.458 4.583 Z M 153.926 15.293 A 0.946 0.946 0 0 0 154.434 15.01 A 0.767 0.767 0 0 0 154.648 14.487 A 1.002 1.002 0 0 0 154.649 14.453 A 0.793 0.793 0 0 0 154.515 14.015 A 1.059 1.059 0 0 0 154.434 13.906 Q 154.232 13.668 153.894 13.473 A 2.963 2.963 0 0 0 153.848 13.447 A 3.062 3.062 0 0 0 153.393 13.244 A 3.963 3.963 0 0 0 152.988 13.125 A 4.316 4.316 0 0 0 152.157 13.012 A 4.955 4.955 0 0 0 151.953 13.008 A 5.94 5.94 0 0 0 150.626 13.163 A 6.844 6.844 0 0 0 150.313 13.242 A 7.37 7.37 0 0 0 149.278 13.613 A 6.286 6.286 0 0 0 148.789 13.858 A 5.426 5.426 0 0 0 148.209 14.229 Q 147.906 14.452 147.676 14.697 A 2.062 2.062 0 0 0 147.449 14.983 Q 147.338 15.155 147.288 15.325 A 0.985 0.985 0 0 0 147.246 15.606 Q 147.246 16.055 147.793 16.055 A 4.327 4.327 0 0 0 147.985 16.05 Q 148.311 16.035 148.867 15.977 Q 149.61 15.899 150.508 15.791 A 63.534 63.534 0 0 0 152.324 15.547 A 97.849 97.849 0 0 0 152.98 15.447 Q 153.239 15.407 153.476 15.368 A 55.125 55.125 0 0 0 153.926 15.293 Z M 165.208 26.153 A 3.435 3.435 0 0 0 166.035 26.25 A 4.26 4.26 0 0 0 166.323 26.241 Q 166.68 26.216 166.98 26.13 A 2.117 2.117 0 0 0 167.705 25.772 A 1.524 1.524 0 0 0 168.227 25.054 A 1.838 1.838 0 0 0 168.32 24.453 A 1.886 1.886 0 0 0 168.106 23.584 A 2.414 2.414 0 0 0 167.529 22.852 A 2.747 2.747 0 0 0 167.506 22.832 A 2.881 2.881 0 0 0 166.699 22.354 A 2.63 2.63 0 0 0 165.723 22.168 A 4.431 4.431 0 0 0 165.503 22.173 Q 164.562 22.22 163.975 22.676 Q 163.646 22.931 163.483 23.264 A 1.658 1.658 0 0 0 163.32 24.004 A 2.213 2.213 0 0 0 163.321 24.019 A 1.903 1.903 0 0 0 163.535 24.902 A 2.338 2.338 0 0 0 164.111 25.615 A 2.378 2.378 0 0 0 164.402 25.823 A 2.776 2.776 0 0 0 164.971 26.084 A 3.112 3.112 0 0 0 165.208 26.153 Z" vector-effect="non-scaling-stroke"/></g></svg>